<svg width="25" height="27" viewBox="0 0 25 27" fill="none" xmlns="http://www.w3.org/2000/svg">
<path d="M17.4578 15.6809C16.3101 15.6809 15.9314 16.5538 15.8163 16.9591H18.8802C18.8515 16.7341 18.7615 16.3386 18.4752 16.0502C18.2313 15.8055 17.89 15.6809 17.4578 15.6809ZM9.5817 17.3112H6.6795V19.7847H9.42315C9.91245 19.7724 10.5187 19.6149 10.5187 18.587C10.5187 17.3469 9.6776 17.3112 9.5817 17.3112Z" fill="white"/>
<path d="M22.6623 0.925537H2.36226C1.83802 0.925674 1.32762 1.09387 0.906003 1.40544C0.484385 1.71701 0.173755 2.15553 0.0197144 2.65664V24.3941C0.148688 24.8133 0.387657 25.1902 0.711745 25.4857C1.03583 25.7811 1.43319 25.9843 1.86246 26.0741H23.1617C23.5786 25.9866 23.9655 25.7921 24.2844 25.5097C24.6033 25.2272 24.8431 24.8666 24.9803 24.4634V2.58734C24.8158 2.10297 24.5039 1.68226 24.0881 1.38422C23.6724 1.08618 23.1738 0.925787 22.6623 0.925537ZM15.0438 11.5568C15.0438 11.4598 15.1229 11.3811 15.2195 11.3811H19.5823C19.6782 11.3811 19.7576 11.4598 19.7576 11.5568V12.8591C19.7574 12.9056 19.7389 12.9501 19.7061 12.9829C19.6732 13.0158 19.6287 13.0343 19.5823 13.0345H15.2195C15.173 13.0345 15.1283 13.016 15.0954 12.9832C15.0625 12.9503 15.0439 12.9057 15.0438 12.8591V11.5568ZM13.1909 18.7804C13.1909 20.4429 12.3114 21.2448 11.5722 21.6224C10.7668 22.0351 9.93207 22.0673 9.69477 22.0673H4.15671C4.11017 22.0669 4.06564 22.0482 4.03276 22.0153C3.99988 21.9823 3.98129 21.9378 3.98101 21.8912V11.3195C3.98101 11.2225 4.06081 11.1434 4.15671 11.1434H9.65906C11.6121 11.1434 12.8255 12.2893 12.8255 14.1349C12.8255 15.278 12.2687 15.8264 11.7787 16.0875C12.051 16.1822 12.2962 16.3419 12.493 16.5527C13.2609 17.3647 13.1951 18.7227 13.1909 18.7804ZM21.3473 18.6212C21.342 18.6635 21.3214 18.7025 21.2893 18.7306C21.2573 18.7588 21.216 18.7743 21.1734 18.7741H15.8768C15.915 19.3548 16.1449 19.7737 16.5604 20.0212C16.9279 20.2392 17.3342 20.263 17.4903 20.263C17.5229 20.263 17.5432 20.2616 17.5456 20.2609C18.1536 20.2609 18.5851 20.1269 18.8396 19.8623C19.0835 19.6082 19.0769 19.3208 19.0751 19.3086C19.0751 19.2603 19.0912 19.2137 19.1255 19.1787C19.1418 19.1616 19.1615 19.1479 19.1833 19.1386C19.2051 19.1292 19.2285 19.1244 19.2522 19.1245H21.1118C21.2091 19.1245 21.2882 19.2032 21.2882 19.3005C21.2882 22.1464 18.2491 22.2906 17.638 22.2906C17.5404 22.2906 17.4847 22.2871 17.4847 22.2871H17.483C16.111 22.2871 15.0375 21.887 14.3011 21.0988C13.1472 19.8619 13.2525 18.1315 13.2578 18.0587C13.2578 18.0276 13.2627 17.0021 13.781 15.9615C14.2679 14.991 15.3042 13.8332 17.4952 13.8332C18.7507 13.8332 19.7282 14.2189 20.3957 14.9791C21.6238 16.3794 21.3613 18.5302 21.3473 18.6212Z" fill="white"/>
<path d="M10.1515 14.2462C10.1515 13.333 9.60375 13.3225 9.581 13.3225H6.6795V15.3294H9.3892C9.79205 15.3294 10.1515 15.2468 10.1515 14.2462Z" fill="white"/>
</svg>
